G04 #@! TF.GenerationSoftware,KiCad,Pcbnew,5.1.6-c6e7f7d~87~ubuntu16.04.1*
G04 #@! TF.CreationDate,2020-11-01T04:30:44+09:00*
G04 #@! TF.ProjectId,ninja60,6e696e6a-6136-4302-9e6b-696361645f70,rev?*
G04 #@! TF.SameCoordinates,Original*
G04 #@! TF.FileFunction,Soldermask,Top*
G04 #@! TF.FilePolarity,Negative*
%FSLAX46Y46*%
G04 Gerber Fmt 4.6, Leading zero omitted, Abs format (unit mm)*
G04 Created by KiCad (PCBNEW 5.1.6-c6e7f7d~87~ubuntu16.04.1) date 2020-11-01 04:30:44*
%MOMM*%
%LPD*%
G01*
G04 APERTURE LIST*
%ADD10C,3.100000*%
%ADD11C,4.200000*%
%ADD12C,2.000000*%
%ADD13C,4.087800*%
%ADD14C,3.148000*%
%ADD15O,1.800000X2.600000*%
%ADD16C,1.300000*%
%ADD17O,2.600000X1.800000*%
%ADD18C,2.100000*%
%ADD19R,3.100000X2.600000*%
%ADD20R,2.100000X2.100000*%
G04 APERTURE END LIST*
D10*
X264319860Y-114300480D03*
X321470100Y-123825520D03*
X321470100Y-176213240D03*
X226219700Y-176213240D03*
X226219700Y-138113080D03*
X185738280Y-176213240D03*
X183357020Y-119063000D03*
X78581580Y-176213240D03*
X90487880Y-132159930D03*
X109537960Y-116681740D03*
D11*
X292893750Y-109537500D03*
D12*
X287813750Y-109537500D03*
X297973750Y-109537500D03*
D10*
X296703750Y-112077500D03*
X290353750Y-114617500D03*
X102552500Y-161607500D03*
X96202500Y-164147500D03*
D12*
X94932500Y-166687500D03*
X105092500Y-166687500D03*
D11*
X100012500Y-166687500D03*
X119062500Y-145256250D03*
D12*
X124142500Y-145256250D03*
X113982500Y-145256250D03*
D10*
X115252500Y-142716250D03*
X121602500Y-140176250D03*
X102552500Y-142557500D03*
X96202500Y-145097500D03*
D12*
X94932500Y-147637500D03*
X105092500Y-147637500D03*
D11*
X100012500Y-147637500D03*
D13*
X187007500Y-169100500D03*
X187007500Y-145224500D03*
D14*
X202247500Y-169100500D03*
X202247500Y-145224500D03*
D15*
X168787500Y-107050000D03*
X164587500Y-105550000D03*
X164587500Y-101550000D03*
X164587500Y-98550000D03*
D16*
X166687500Y-103750000D03*
X166687500Y-96750000D03*
D15*
X285469940Y-107050400D03*
X281269940Y-105550400D03*
X281269940Y-101550400D03*
X281269940Y-98550400D03*
D16*
X283369940Y-103750400D03*
X283369940Y-96750400D03*
X203287500Y-116681250D03*
X196287500Y-116681250D03*
D17*
X201487500Y-114581250D03*
X198487500Y-114581250D03*
X194487500Y-114581250D03*
X192987500Y-118781250D03*
D18*
X143197490Y-97631660D03*
X149697490Y-97631660D03*
X277094900Y-97631660D03*
X270594900Y-97631660D03*
D11*
X80962500Y-109537500D03*
D12*
X75882500Y-109537500D03*
X86042500Y-109537500D03*
D10*
X84772500Y-112077500D03*
X78422500Y-114617500D03*
X97472500Y-114617500D03*
X103822500Y-112077500D03*
D12*
X105092500Y-109537500D03*
X94932500Y-109537500D03*
D11*
X100012500Y-109537500D03*
X119062500Y-107156250D03*
D12*
X113982500Y-107156250D03*
X124142500Y-107156250D03*
D10*
X122872500Y-109696250D03*
X116522500Y-112236250D03*
D11*
X138112500Y-104775000D03*
D12*
X133032500Y-104775000D03*
X143192500Y-104775000D03*
D10*
X141922500Y-107315000D03*
X135572500Y-109855000D03*
X154622500Y-114617500D03*
X160972500Y-112077500D03*
D12*
X162242500Y-109537500D03*
X152082500Y-109537500D03*
D11*
X157162500Y-109537500D03*
D10*
X173672500Y-114617500D03*
X180022500Y-112077500D03*
D12*
X181292500Y-109537500D03*
X171132500Y-109537500D03*
D11*
X176212500Y-109537500D03*
D10*
X211614660Y-106997960D03*
X214154660Y-113347960D03*
D12*
X216694660Y-114617960D03*
X216694660Y-104457960D03*
D11*
X216694660Y-109537960D03*
X235743750Y-109537500D03*
D12*
X235743750Y-104457500D03*
X235743750Y-114617500D03*
D10*
X233203750Y-113347500D03*
X230663750Y-106997500D03*
X252253750Y-109855000D03*
X258603750Y-107315000D03*
D12*
X259873750Y-104775000D03*
X249713750Y-104775000D03*
D11*
X254793750Y-104775000D03*
D10*
X271303750Y-112236250D03*
X277653750Y-109696250D03*
D12*
X278923750Y-107156250D03*
X268763750Y-107156250D03*
D11*
X273843750Y-107156250D03*
D10*
X309403750Y-119380000D03*
X315753750Y-116840000D03*
D12*
X317023750Y-114300000D03*
X306863750Y-114300000D03*
D11*
X311943750Y-114300000D03*
X330993750Y-114300000D03*
D12*
X325913750Y-114300000D03*
X336073750Y-114300000D03*
D10*
X334803750Y-116840000D03*
X328453750Y-119380000D03*
D18*
X187906250Y-102156250D03*
X187906250Y-107156250D03*
D19*
X194906250Y-99056250D03*
X194906250Y-110256250D03*
D18*
X202406250Y-102156250D03*
X202406250Y-104656250D03*
D20*
X202406250Y-107156250D03*
D11*
X80962500Y-128587500D03*
D12*
X86042500Y-128587500D03*
X75882500Y-128587500D03*
D10*
X77152500Y-126047500D03*
X83502500Y-123507500D03*
X102552500Y-123507500D03*
X96202500Y-126047500D03*
D12*
X94932500Y-128587500D03*
X105092500Y-128587500D03*
D11*
X100012500Y-128587500D03*
X119062500Y-126206250D03*
D12*
X124142500Y-126206250D03*
X113982500Y-126206250D03*
D10*
X115252500Y-123666250D03*
X121602500Y-121126250D03*
X140652500Y-118745000D03*
X134302500Y-121285000D03*
D12*
X133032500Y-123825000D03*
X143192500Y-123825000D03*
D11*
X138112500Y-123825000D03*
X157162500Y-128587500D03*
D12*
X162242500Y-128587500D03*
X152082500Y-128587500D03*
D10*
X153352500Y-126047500D03*
X159702500Y-123507500D03*
X178752500Y-123507500D03*
X172402500Y-126047500D03*
D12*
X171132500Y-128587500D03*
X181292500Y-128587500D03*
D11*
X176212500Y-128587500D03*
D10*
X211614660Y-126048040D03*
X214154660Y-132398040D03*
D12*
X216694660Y-133668040D03*
X216694660Y-123508040D03*
D11*
X216694660Y-128588040D03*
X235743750Y-128587500D03*
D12*
X235743750Y-123507500D03*
X235743750Y-133667500D03*
D10*
X233203750Y-132397500D03*
X230663750Y-126047500D03*
X257333750Y-118745000D03*
X250983750Y-121285000D03*
D12*
X249713750Y-123825000D03*
X259873750Y-123825000D03*
D11*
X254793750Y-123825000D03*
X273843750Y-126206250D03*
D12*
X278923750Y-126206250D03*
X268763750Y-126206250D03*
D10*
X270033750Y-123666250D03*
X276383750Y-121126250D03*
X295433750Y-123507500D03*
X289083750Y-126047500D03*
D12*
X287813750Y-128587500D03*
X297973750Y-128587500D03*
D11*
X292893750Y-128587500D03*
X311943750Y-133350000D03*
D12*
X317023750Y-133350000D03*
X306863750Y-133350000D03*
D10*
X308133750Y-130810000D03*
X314483750Y-128270000D03*
X333533750Y-128270000D03*
X327183750Y-130810000D03*
D12*
X325913750Y-133350000D03*
X336073750Y-133350000D03*
D11*
X330993750Y-133350000D03*
X80962500Y-147637500D03*
D12*
X86042500Y-147637500D03*
X75882500Y-147637500D03*
D10*
X77152500Y-145097500D03*
X83502500Y-142557500D03*
X140652500Y-137795000D03*
X134302500Y-140335000D03*
D12*
X133032500Y-142875000D03*
X143192500Y-142875000D03*
D11*
X138112500Y-142875000D03*
X157162500Y-147637500D03*
D12*
X162242500Y-147637500D03*
X152082500Y-147637500D03*
D10*
X153352500Y-145097500D03*
X159702500Y-142557500D03*
X178752500Y-142557500D03*
X172402500Y-145097500D03*
D12*
X171132500Y-147637500D03*
X181292500Y-147637500D03*
D11*
X176212500Y-147637500D03*
X195262500Y-157162500D03*
D12*
X195262500Y-152082500D03*
X195262500Y-162242500D03*
D10*
X192722500Y-160972500D03*
X190182500Y-154622500D03*
D11*
X216693750Y-147637500D03*
D12*
X221773750Y-147637500D03*
X211613750Y-147637500D03*
D10*
X212883750Y-145097500D03*
X219233750Y-142557500D03*
X238283750Y-142557500D03*
X231933750Y-145097500D03*
D12*
X230663750Y-147637500D03*
X240823750Y-147637500D03*
D11*
X235743750Y-147637500D03*
X254793750Y-142875000D03*
D12*
X259873750Y-142875000D03*
X249713750Y-142875000D03*
D10*
X250983750Y-140335000D03*
X257333750Y-137795000D03*
X276383750Y-140176250D03*
X270033750Y-142716250D03*
D12*
X268763750Y-145256250D03*
X278923750Y-145256250D03*
D11*
X273843750Y-145256250D03*
X292893750Y-147637500D03*
D12*
X297973750Y-147637500D03*
X287813750Y-147637500D03*
D10*
X289083750Y-145097500D03*
X295433750Y-142557500D03*
D11*
X311943750Y-152400000D03*
D12*
X317023750Y-152400000D03*
X306863750Y-152400000D03*
D10*
X308133750Y-149860000D03*
X314483750Y-147320000D03*
X333533750Y-147320000D03*
X327183750Y-149860000D03*
D12*
X325913750Y-152400000D03*
X336073750Y-152400000D03*
D11*
X330993750Y-152400000D03*
X80962500Y-166687500D03*
D12*
X86042500Y-166687500D03*
X75882500Y-166687500D03*
D10*
X77152500Y-164147500D03*
X83502500Y-161607500D03*
D11*
X119062500Y-164306250D03*
D12*
X124142500Y-164306250D03*
X113982500Y-164306250D03*
D10*
X115252500Y-161766250D03*
X121602500Y-159226250D03*
X140652500Y-156845000D03*
X134302500Y-159385000D03*
D12*
X133032500Y-161925000D03*
X143192500Y-161925000D03*
D11*
X138112500Y-161925000D03*
X157162500Y-166687500D03*
D12*
X162242500Y-166687500D03*
X152082500Y-166687500D03*
D10*
X153352500Y-164147500D03*
X159702500Y-161607500D03*
X178752500Y-161607500D03*
X172402500Y-164147500D03*
D12*
X171132500Y-166687500D03*
X181292500Y-166687500D03*
D11*
X176212500Y-166687500D03*
D10*
X219233750Y-161607500D03*
X212883750Y-164147500D03*
D12*
X211613750Y-166687500D03*
X221773750Y-166687500D03*
D11*
X216693750Y-166687500D03*
X235743750Y-166687500D03*
D12*
X240823750Y-166687500D03*
X230663750Y-166687500D03*
D10*
X231933750Y-164147500D03*
X238283750Y-161607500D03*
X257333750Y-156845000D03*
X250983750Y-159385000D03*
D12*
X249713750Y-161925000D03*
X259873750Y-161925000D03*
D11*
X254793750Y-161925000D03*
X273843750Y-164306250D03*
D12*
X278923750Y-164306250D03*
X268763750Y-164306250D03*
D10*
X270033750Y-161766250D03*
X276383750Y-159226250D03*
X295433750Y-161607500D03*
X289083750Y-164147500D03*
D12*
X287813750Y-166687500D03*
X297973750Y-166687500D03*
D11*
X292893750Y-166687500D03*
X311943750Y-171450000D03*
D12*
X317023750Y-171450000D03*
X306863750Y-171450000D03*
D10*
X308133750Y-168910000D03*
X314483750Y-166370000D03*
X333533750Y-166370000D03*
X327183750Y-168910000D03*
D12*
X325913750Y-171450000D03*
X336073750Y-171450000D03*
D11*
X330993750Y-171450000D03*
X88106250Y-185737500D03*
D12*
X93186250Y-185737500D03*
X83026250Y-185737500D03*
D10*
X84296250Y-183197500D03*
X90646250Y-180657500D03*
X119221250Y-180657500D03*
X112871250Y-183197500D03*
D12*
X111601250Y-185737500D03*
X121761250Y-185737500D03*
D11*
X116681250Y-185737500D03*
X142875000Y-185737500D03*
D12*
X137795000Y-185737500D03*
X147955000Y-185737500D03*
D10*
X146685000Y-188277500D03*
X140335000Y-190817500D03*
X168910000Y-190817500D03*
X175260000Y-188277500D03*
D12*
X176530000Y-185737500D03*
X166370000Y-185737500D03*
D11*
X171450000Y-185737500D03*
D10*
X192722500Y-190817500D03*
X199072500Y-188277500D03*
D12*
X200342500Y-185737500D03*
X190182500Y-185737500D03*
D11*
X195262500Y-185737500D03*
X216693750Y-185737500D03*
D12*
X211613750Y-185737500D03*
X221773750Y-185737500D03*
D10*
X220503750Y-188277500D03*
X214153750Y-190817500D03*
D11*
X240506250Y-185737500D03*
D12*
X235426250Y-185737500D03*
X245586250Y-185737500D03*
D10*
X244316250Y-188277500D03*
X237966250Y-190817500D03*
X266541250Y-190817500D03*
X272891250Y-188277500D03*
D12*
X274161250Y-185737500D03*
X264001250Y-185737500D03*
D11*
X269081250Y-185737500D03*
X292893750Y-185737500D03*
D12*
X297973750Y-185737500D03*
X287813750Y-185737500D03*
D10*
X289083750Y-183197500D03*
X295433750Y-180657500D03*
D18*
X187906250Y-125968750D03*
X187906250Y-130968750D03*
D19*
X194906250Y-122868750D03*
X194906250Y-134068750D03*
D18*
X202406250Y-125968750D03*
X202406250Y-128468750D03*
D20*
X202406250Y-130968750D03*
M02*
