M48
; DRILL file {KiCad 5.1.6-c6e7f7d~87~ubuntu16.04.1} date Sun Nov  1 04:31:49 2020
; FORMAT={-:-/ absolute / metric / decimal}
; #@! TF.CreationDate,2020-11-01T04:31:49+09:00
; #@! TF.GenerationSoftware,Kicad,Pcbnew,5.1.6-c6e7f7d~87~ubuntu16.04.1
; #@! TF.FileFunction,Plated,1,2,PTH
FMAT,2
METRIC
T1C0.400
T2C0.813
T3C1.000
T4C1.300
T5C2.000
T6C2.200
%
G90
G05
T1
X73.819Y-101.204
X75.01Y-107.157
X76.2Y-157.163
X83.344Y-138.113
X84.535Y-107.157
X86.916Y-171.451
X92.869Y-152.401
X92.869Y-157.163
X92.869Y-176.213
X95.25Y-133.351
X95.25Y-138.113
X104.775Y-138.113
X107.157Y-132.16
X109.538Y-135.732
X109.538Y-147.638
X109.538Y-154.782
X111.919Y-130.969
X111.919Y-138.113
X111.919Y-150.019
X111.919Y-157.163
X111.919Y-169.069
X111.919Y-176.213
X125.016Y-130.969
X125.016Y-150.019
X130.969Y-126.207
X130.969Y-135.732
X130.969Y-145.257
X130.969Y-154.782
X130.969Y-166.688
X130.969Y-178.594
X133.351Y-128.588
X133.351Y-147.638
X140.494Y-171.451
X147.638Y-148.829
X150.019Y-133.351
X150.019Y-140.494
X150.019Y-152.401
X150.019Y-159.544
X150.019Y-180.976
X160.735Y-98.822
X167.879Y-110.729
X169.069Y-133.351
X169.069Y-140.494
X169.069Y-152.401
X169.069Y-157.163
X169.069Y-171.451
X178.594Y-120.254
X178.594Y-180.976
X180.976Y-105.966
X186.929Y-158.354
X188.12Y-140.494
X190.501Y-125.016
X190.501Y-130.969
X191.691Y-109.538
X209.551Y-171.451
X221.457Y-100.013
X222.648Y-119.063
X222.648Y-135.732
X223.838Y-180.976
X228.601Y-133.351
X228.601Y-152.401
X228.601Y-157.163
X228.601Y-170.26
X230.982Y-176.213
X242.889Y-138.113
X245.27Y-114.3
X245.27Y-138.113
X245.27Y-166.688
X247.651Y-123.826
X247.651Y-128.588
X247.651Y-147.638
X247.651Y-152.401
X247.651Y-180.976
X252.414Y-114.3
X261.939Y-102.394
X263.129Y-121.444
X265.51Y-108.347
X266.701Y-130.969
X266.701Y-135.732
X266.701Y-150.019
X266.701Y-154.782
X266.701Y-169.069
X276.226Y-180.976
X283.37Y-119.063
X285.751Y-133.351
X285.751Y-138.113
X285.751Y-152.401
X285.751Y-157.163
X285.751Y-171.451
X285.751Y-176.213
X298.848Y-105.966
X302.42Y-123.826
X304.801Y-138.113
X304.801Y-142.876
X304.801Y-157.163
X304.801Y-161.926
X323.851Y-127.397
X323.851Y-138.113
X323.851Y-142.876
X323.851Y-157.163
X323.851Y-161.926
T2
X76.01Y-104.307
X76.01Y-119.527
X78.549Y-104.307
X78.549Y-119.527
X81.09Y-104.307
X81.09Y-119.527
X83.629Y-104.307
X83.629Y-119.527
X86.169Y-104.307
X86.169Y-119.527
X88.709Y-104.307
X88.709Y-119.527
X91.249Y-104.307
X91.249Y-119.527
X93.789Y-104.307
X93.789Y-119.527
X96.329Y-104.307
X96.329Y-119.527
X98.87Y-104.307
X98.87Y-119.527
X101.409Y-104.307
X101.409Y-119.527
X103.95Y-104.307
X103.95Y-119.527
X225.755Y-99.822
X225.755Y-102.362
X225.755Y-104.902
X225.755Y-107.442
X225.755Y-109.982
X225.755Y-112.522
X225.755Y-115.062
X225.755Y-117.602
X225.755Y-120.142
X225.755Y-122.682
X225.755Y-125.222
X225.755Y-127.762
X240.975Y-99.822
X240.975Y-102.362
X240.975Y-104.902
X240.975Y-107.442
X240.975Y-109.982
X240.975Y-112.522
X240.975Y-115.062
X240.975Y-117.602
X240.975Y-120.142
X240.975Y-122.682
X240.975Y-125.222
X240.975Y-127.762
T3
X187.906Y-102.156
X187.906Y-107.156
X202.406Y-102.156
X202.406Y-104.656
X202.406Y-107.156
X187.906Y-125.969
X187.906Y-130.969
X202.406Y-125.969
X202.406Y-128.469
X202.406Y-130.969
T4
X270.595Y-97.632
X277.095Y-97.632
X143.197Y-97.632
X149.697Y-97.632
T6
X226.22Y-138.113
X321.47Y-123.826
X78.582Y-176.213
X185.738Y-176.213
X264.32Y-114.3
X90.488Y-132.16
X226.22Y-176.213
X183.357Y-119.063
X321.47Y-176.213
X109.538Y-116.682
T3
G00X281.27Y-98.8
M15
G01X281.27Y-98.3
M16
G05
G00X281.27Y-101.8
M15
G01X281.27Y-101.3
M16
G05
G00X281.27Y-105.8
M15
G01X281.27Y-105.3
M16
G05
G00X285.47Y-107.3
M15
G01X285.47Y-106.8
M16
G05
G00X164.588Y-98.8
M15
G01X164.588Y-98.3
M16
G05
G00X164.588Y-101.8
M15
G01X164.588Y-101.3
M16
G05
G00X164.588Y-105.8
M15
G01X164.588Y-105.3
M16
G05
G00X168.787Y-107.3
M15
G01X168.787Y-106.8
M16
G05
G00X192.737Y-118.781
M15
G01X193.237Y-118.781
M16
G05
G00X194.237Y-114.581
M15
G01X194.737Y-114.581
M16
G05
G00X198.237Y-114.581
M15
G01X198.737Y-114.581
M16
G05
G00X201.237Y-114.581
M15
G01X201.737Y-114.581
M16
G05
T5
G00X195.156Y-99.056
M15
G01X194.656Y-99.056
M16
G05
G00X195.156Y-110.256
M15
G01X194.656Y-110.256
M16
G05
G00X195.156Y-122.869
M15
G01X194.656Y-122.869
M16
G05
G00X195.156Y-134.069
M15
G01X194.656Y-134.069
M16
G05
T0
M30
