M48
; DRILL file {KiCad 5.1.6-c6e7f7d~87~ubuntu16.04.1} date Sun Nov  1 04:31:49 2020
; FORMAT={-:-/ absolute / metric / decimal}
; #@! TF.CreationDate,2020-11-01T04:31:49+09:00
; #@! TF.GenerationSoftware,Kicad,Pcbnew,5.1.6-c6e7f7d~87~ubuntu16.04.1
; #@! TF.FileFunction,NonPlated,1,2,NPTH
FMAT,2
METRIC
T1C1.200
T2C1.900
T3C3.000
T4C3.048
T5C3.988
T6C4.100
%
G90
G05
T1
X196.287Y-116.681
X283.37Y-96.75
X283.37Y-103.75
X166.688Y-96.75
X166.688Y-103.75
X203.287Y-116.681
T2
X133.032Y-142.875
X143.192Y-142.875
X113.983Y-107.156
X124.142Y-107.156
X216.695Y-123.508
X216.695Y-133.668
X249.714Y-161.925
X259.874Y-161.925
X235.426Y-185.737
X245.586Y-185.737
X190.183Y-185.737
X200.343Y-185.737
X249.714Y-142.875
X259.874Y-142.875
X75.882Y-166.688
X86.042Y-166.688
X268.764Y-145.256
X278.924Y-145.256
X113.983Y-126.206
X124.142Y-126.206
X133.032Y-123.825
X143.192Y-123.825
X171.132Y-147.637
X181.292Y-147.637
X216.695Y-104.458
X216.695Y-114.618
X94.932Y-128.588
X105.093Y-128.588
X113.983Y-145.256
X124.142Y-145.256
X137.795Y-185.737
X147.955Y-185.737
X287.814Y-147.637
X297.974Y-147.637
X75.882Y-147.637
X86.042Y-147.637
X235.744Y-123.507
X235.744Y-133.667
X133.032Y-161.925
X143.192Y-161.925
X264.001Y-185.737
X274.161Y-185.737
X75.882Y-128.588
X86.042Y-128.588
X166.37Y-185.737
X176.53Y-185.737
X306.864Y-152.4
X317.024Y-152.4
X152.082Y-147.637
X162.243Y-147.637
X325.914Y-152.4
X336.074Y-152.4
X287.814Y-109.537
X297.974Y-109.537
X306.864Y-133.35
X317.024Y-133.35
X152.082Y-109.537
X162.243Y-109.537
X249.714Y-123.825
X259.874Y-123.825
X325.914Y-114.3
X336.074Y-114.3
X195.262Y-152.082
X195.262Y-162.243
X268.764Y-164.306
X278.924Y-164.306
X306.864Y-114.3
X317.024Y-114.3
X171.132Y-109.537
X181.292Y-109.537
X268.764Y-107.156
X278.924Y-107.156
X287.814Y-166.688
X297.974Y-166.688
X94.932Y-109.537
X105.093Y-109.537
X171.132Y-166.688
X181.292Y-166.688
X152.082Y-166.688
X162.243Y-166.688
X152.082Y-128.588
X162.243Y-128.588
X75.882Y-109.537
X86.042Y-109.537
X94.932Y-166.688
X105.093Y-166.688
X268.764Y-126.206
X278.924Y-126.206
X230.664Y-147.637
X240.824Y-147.637
X83.026Y-185.737
X93.186Y-185.737
X287.814Y-128.588
X297.974Y-128.588
X111.601Y-185.737
X121.761Y-185.737
X325.914Y-133.35
X336.074Y-133.35
X325.914Y-171.45
X336.074Y-171.45
X113.983Y-164.306
X124.142Y-164.306
X211.614Y-166.688
X221.774Y-166.688
X211.614Y-147.637
X221.774Y-147.637
X306.864Y-171.45
X317.024Y-171.45
X211.614Y-185.737
X221.774Y-185.737
X287.814Y-185.737
X297.974Y-185.737
X249.714Y-104.775
X259.874Y-104.775
X230.664Y-166.688
X240.824Y-166.688
X133.032Y-104.775
X143.192Y-104.775
X94.932Y-147.637
X105.093Y-147.637
X171.132Y-128.588
X181.292Y-128.588
X235.744Y-104.457
X235.744Y-114.617
T3
X168.91Y-190.817
X175.26Y-188.278
X308.134Y-149.86
X314.484Y-147.32
X153.352Y-145.097
X159.702Y-142.558
X327.184Y-149.86
X333.534Y-147.32
X290.354Y-114.617
X296.704Y-112.078
X308.134Y-130.81
X314.484Y-128.27
X154.623Y-114.617
X160.972Y-112.078
X250.984Y-121.285
X257.334Y-118.745
X328.454Y-119.38
X334.804Y-116.84
X190.183Y-154.623
X192.722Y-160.972
X270.034Y-161.766
X276.384Y-159.226
X309.404Y-119.38
X315.754Y-116.84
X173.672Y-114.617
X180.022Y-112.078
X271.304Y-112.236
X277.654Y-109.696
X289.084Y-164.147
X295.434Y-161.607
X97.472Y-114.617
X103.822Y-112.078
X172.403Y-164.147
X178.752Y-161.607
X153.352Y-164.147
X159.702Y-161.607
X153.352Y-126.047
X159.702Y-123.507
X78.422Y-114.617
X84.772Y-112.078
X96.203Y-164.147
X102.552Y-161.607
X270.034Y-123.666
X276.384Y-121.126
X231.934Y-145.097
X238.284Y-142.558
X84.296Y-183.197
X90.646Y-180.657
X289.084Y-126.047
X295.434Y-123.507
X112.871Y-183.197
X119.221Y-180.657
X327.184Y-130.81
X333.534Y-128.27
X327.184Y-168.91
X333.534Y-166.37
X115.252Y-161.766
X121.602Y-159.226
X212.884Y-164.147
X219.234Y-161.607
X212.884Y-145.097
X219.234Y-142.558
X308.134Y-168.91
X314.484Y-166.37
X214.154Y-190.817
X220.504Y-188.278
X289.084Y-183.197
X295.434Y-180.657
X252.254Y-109.855
X258.604Y-107.315
X231.934Y-164.147
X238.284Y-161.607
X135.572Y-109.855
X141.922Y-107.315
X96.203Y-145.097
X102.552Y-142.558
X172.403Y-126.047
X178.752Y-123.507
X230.664Y-106.997
X233.204Y-113.347
X134.302Y-140.335
X140.653Y-137.795
X116.522Y-112.236
X122.872Y-109.696
X211.615Y-126.048
X214.155Y-132.398
X250.984Y-159.385
X257.334Y-156.845
X237.966Y-190.817
X244.316Y-188.278
X192.722Y-190.817
X199.072Y-188.278
X250.984Y-140.335
X257.334Y-137.795
X77.153Y-164.147
X83.502Y-161.607
X270.034Y-142.716
X276.384Y-140.176
X115.252Y-123.666
X121.602Y-121.126
X134.302Y-121.285
X140.653Y-118.745
X172.403Y-145.097
X178.752Y-142.558
X211.615Y-106.998
X214.155Y-113.348
X96.203Y-126.047
X102.552Y-123.507
X115.252Y-142.716
X121.602Y-140.176
X140.335Y-190.817
X146.685Y-188.278
X289.084Y-145.097
X295.434Y-142.558
X77.153Y-145.097
X83.502Y-142.558
X230.664Y-126.047
X233.204Y-132.398
X134.302Y-159.385
X140.653Y-156.845
X266.541Y-190.817
X272.891Y-188.278
X77.153Y-126.047
X83.502Y-123.507
T4
X202.248Y-145.225
X202.248Y-169.1
T5
X187.007Y-145.225
X187.007Y-169.1
T6
X292.894Y-128.588
X116.681Y-185.737
X330.994Y-133.35
X330.994Y-171.45
X119.062Y-164.306
X216.694Y-166.688
X216.694Y-147.637
X311.944Y-171.45
X216.694Y-185.737
X292.894Y-185.737
X254.794Y-104.775
X235.744Y-166.688
X138.112Y-104.775
X100.012Y-147.637
X176.213Y-128.588
X235.744Y-109.537
X138.112Y-142.875
X119.062Y-107.156
X216.695Y-128.588
X254.794Y-161.925
X240.506Y-185.737
X195.262Y-185.737
X254.794Y-142.875
X80.962Y-166.688
X273.844Y-145.256
X119.062Y-126.206
X138.112Y-123.825
X176.213Y-147.637
X216.695Y-109.538
X100.012Y-128.588
X119.062Y-145.256
X142.875Y-185.737
X292.894Y-147.637
X80.962Y-147.637
X235.744Y-128.588
X138.112Y-161.925
X269.081Y-185.737
X80.962Y-128.588
X171.45Y-185.737
X311.944Y-152.4
X157.162Y-147.637
X330.994Y-152.4
X292.894Y-109.537
X311.944Y-133.35
X157.162Y-109.537
X254.794Y-123.825
X330.994Y-114.3
X195.262Y-157.162
X273.844Y-164.306
X311.944Y-114.3
X176.213Y-109.537
X273.844Y-107.156
X292.894Y-166.688
X100.012Y-109.537
X176.213Y-166.688
X157.162Y-166.688
X157.162Y-128.588
X80.962Y-109.537
X100.012Y-166.688
X273.844Y-126.206
X235.744Y-147.637
X88.106Y-185.737
T0
M30
