G04 #@! TF.GenerationSoftware,KiCad,Pcbnew,5.1.6-c6e7f7d~87~ubuntu16.04.1*
G04 #@! TF.CreationDate,2020-11-01T04:30:44+09:00*
G04 #@! TF.ProjectId,ninja60,6e696e6a-6136-4302-9e6b-696361645f70,rev?*
G04 #@! TF.SameCoordinates,Original*
G04 #@! TF.FileFunction,Profile,NP*
%FSLAX46Y46*%
G04 Gerber Fmt 4.6, Leading zero omitted, Abs format (unit mm)*
G04 Created by KiCad (PCBNEW 5.1.6-c6e7f7d~87~ubuntu16.04.1) date 2020-11-01 04:30:44*
%MOMM*%
%LPD*%
G01*
G04 APERTURE LIST*
G04 #@! TA.AperFunction,Profile*
%ADD10C,0.050000*%
G04 #@! TD*
G04 APERTURE END LIST*
D10*
X204787500Y-192881250D02*
X204787500Y-147637500D01*
X207168750Y-192881250D02*
X204787500Y-192881250D01*
X207168750Y-147637500D02*
X207168750Y-192881250D01*
X204787500Y-147637500D02*
X207168750Y-147637500D01*
X204787500Y-145256250D02*
X204788360Y-102394180D01*
X207168750Y-145256250D02*
X204787500Y-145256250D01*
X207168750Y-102394180D02*
X207168750Y-145256250D01*
X204788360Y-102394180D02*
X207168750Y-102394180D01*
X302418750Y-195262500D02*
X71437500Y-195262500D01*
X302418750Y-180975000D02*
X302418750Y-195262500D01*
X340518750Y-180975000D02*
X302418750Y-180975000D01*
X340518750Y-104775000D02*
X340518750Y-180975000D01*
X321468750Y-104775000D02*
X340518750Y-104775000D01*
X321468750Y-95250000D02*
X321468750Y-104775000D01*
X216694660Y-95250400D02*
X321468750Y-95250000D01*
X216694660Y-100012500D02*
X216694660Y-95250000D01*
X204788360Y-100012500D02*
X216694660Y-100012920D01*
X204788360Y-95250000D02*
X204788360Y-100012500D01*
X185737500Y-95250000D02*
X204788360Y-95250000D01*
X185737500Y-100012500D02*
X185737500Y-95250000D01*
X176212500Y-100012500D02*
X185737500Y-100012500D01*
X176212500Y-95250000D02*
X176212500Y-100012500D01*
X90487500Y-95250000D02*
X176212500Y-95250000D01*
X90487500Y-100012500D02*
X90487500Y-95250000D01*
X71437500Y-100012500D02*
X90487500Y-100012500D01*
X71437500Y-195262500D02*
X71437500Y-100012500D01*
M02*
